<?xml version="1.0" encoding="utf-8"?>
<!-- Generator: Adobe Illustrator 22.1.0, SVG Export Plug-In . SVG Version: 6.00 Build 0)  -->
<svg version="1.1" id="Capa_1" xmlns="http://www.w3.org/2000/svg" xmlns:xlink="http://www.w3.org/1999/xlink" x="0px" y="0px"
	 viewBox="0 0 490.8 490.8" style="enable-background:new 0 0 490.8 490.8;" xml:space="preserve">
<style type="text/css">
	.st0{fill:#F44336;}
</style>
<path class="st0" d="M487.7,135.7c4.1-4.2,4-11-0.3-15.1c-4.1-4-10.7-4-14.8,0L245.5,347.7L18.3,120.6c-4.1-4.2-10.8-4.4-15.1-0.3
	c-4.2,4.1-4.4,10.8-0.3,15.1c0.1,0.1,0.2,0.2,0.3,0.3l234.7,234.7c4.2,4.2,10.9,4.2,15.1,0L487.7,135.7z"/>
<path d="M0.1,128.1c0-5.9,4.8-10.7,10.6-10.7c2.8,0,5.6,1.1,7.6,3.1l227.1,227.1l227.1-227.1c4.2-4.2,10.9-4.2,15.1,0
	s4.2,10.9,0,15.1L253,370.4c-4.2,4.2-10.9,4.2-15.1,0L3.3,135.7C1.2,133.7,0.1,131,0.1,128.1z"/>
</svg>
