<?xml version="1.0" encoding="utf-8"?>
<!-- Generator: Adobe Illustrator 22.1.0, SVG Export Plug-In . SVG Version: 6.00 Build 0)  -->
<svg version="1.1" id="Layer_1" xmlns="http://www.w3.org/2000/svg" xmlns:xlink="http://www.w3.org/1999/xlink" x="0px" y="0px"
	 viewBox="0 0 19.2 19.3" style="enable-background:new 0 0 19.2 19.3;" xml:space="preserve">
<style type="text/css">
	.st0{fill:#444444;}
</style>
<g>
	<g>
		<path class="st0" d="M9.6,19.3C6.7,19.3,5,18,5,15.7v-0.6h4.6c0.9,0,1.3,0,1.6,0c0.4,0,0.7,0,2.4,0l0.6,0v0.6
			C14.2,18,12.5,19.3,9.6,19.3z M6.3,16.3c0.3,1.2,1.4,1.8,3.3,1.8c1.9,0,3.1-0.6,3.3-1.8c-1.1,0-1.4,0-1.8,0c-0.3,0-0.7,0-1.5,0
			H6.3z"/>
		<path class="st0" d="M18,16.3H1.2c-0.6,0-1.2-0.6-1.2-1.2c0-0.6,0.3-1.4,0.9-1.9c1.4-1.3,2.9-2.9,2.9-7.6C3.8,2.5,6.3,0,9.6,0
			c3.2,0,5.8,2.5,5.8,5.6c0,4.6,1.4,6.3,2.9,7.5c0.6,0.6,0.9,1.3,0.9,2C19.2,15.7,18.6,16.3,18,16.3z M9.6,1.2C7,1.2,5,3.1,5,5.6
			c0,4.9-1.6,6.9-3.3,8.5c-0.3,0.3-0.5,0.7-0.5,1H18c0-0.4-0.1-0.7-0.5-1.1c-1.6-1.3-3.3-3.3-3.3-8.4C14.2,3.2,12.1,1.2,9.6,1.2z"/>
	</g>
</g>
</svg>
