<?xml version="1.0" encoding="utf-8"?>
<!-- Generator: Adobe Illustrator 22.1.0, SVG Export Plug-In . SVG Version: 6.00 Build 0)  -->
<svg version="1.1" id="Layer_1" xmlns="http://www.w3.org/2000/svg" xmlns:xlink="http://www.w3.org/1999/xlink" x="0px" y="0px"
	 viewBox="0 0 30 30" style="enable-background:new 0 0 30 30;" xml:space="preserve">
<style type="text/css">
	.st0{fill:none;stroke:#444444;stroke-width:1.2;}
</style>
<g>
	<g>
		<path class="st0" d="M15,24c2.2,0,4-0.8,4-3c-2.8,0.1-1.8,0-4,0s-1.2,0-4,0C11,23.2,12.8,24,15,24z"/>
		<path class="st0" d="M23.4,21c0.3,0,0.6-0.3,0.6-0.6c0-0.6-0.3-1.1-0.7-1.5c-1.6-1.3-3.1-3.2-3.1-8c0-2.7-2.3-5-5.2-5
			s-5.2,2.2-5.2,5c0,4.7-1.5,6.6-3.1,8C6.3,19.3,6,19.9,6,20.4C6,20.7,6.3,21,6.6,21H23.4L23.4,21z"/>
	</g>
</g>
</svg>
