<?xml version="1.0" encoding="utf-8"?>
<!-- Generator: Adobe Illustrator 22.1.0, SVG Export Plug-In . SVG Version: 6.00 Build 0)  -->
<svg version="1.1" id="Layer_1" xmlns="http://www.w3.org/2000/svg" xmlns:xlink="http://www.w3.org/1999/xlink" x="0px" y="0px"
	 viewBox="0 0 30 30" style="enable-background:new 0 0 30 30;" xml:space="preserve">
<style type="text/css">
	.st0{fill:#444444;stroke:#444444;stroke-width:0.3;}
</style>
<g>
	<g>
		<path class="st0" d="M20.2,14.4v-1.9c0-0.2-0.2-0.4-0.4-0.5c-0.4-0.1-1.4-0.2-2.6,0.3c-1.3,0.5-2.4,1.4-3.3,2.8
			c0-0.5,0-0.9,0.1-1.4c0.3-1.5,1-2.7,2.1-3.7c0,0,0,0,0,0c0,0,1.2-1.1,3.7-1.1h0c0.2,0,0.5-0.2,0.5-0.5V6.6l3.7,3.9L20.2,14.4
			L20.2,14.4z M20.1,5.1C20,5,19.8,5,19.6,5c-0.2,0.1-0.3,0.2-0.3,0.4V8c-2.4,0.1-3.6,1.2-3.8,1.3c-1.2,1.1-2.1,2.6-2.4,4.2
			C13,14.4,13,15.2,13.1,16v0c0,0,0,0,0,0l0.1,0.6c0,0.2,0.2,0.4,0.4,0.4c0.2,0,0.4-0.1,0.5-0.2l0.3-0.5c0.9-1.6,2-2.6,3.3-3.1
			c0.6-0.2,1.2-0.3,1.8-0.3v2.6c0,0.2,0.1,0.4,0.3,0.4c0.2,0.1,0.4,0,0.5-0.1l4.8-5.1c0.2-0.2,0.2-0.5,0-0.7L20.1,5.1z"/>
		<path class="st0" d="M23.1,19.4v2.1c0,0.8-0.6,1.5-1.3,1.5H7.2c-0.7,0-1.3-0.7-1.3-1.5v-12C5.9,8.7,6.5,8,7.2,8h3.1
			c0.2,0,0.4-0.2,0.4-0.5c0-0.3-0.2-0.5-0.4-0.5H7.2C6,7,5,8.1,5,9.5v12C5,22.9,6,24,7.2,24h14.6c1.2,0,2.2-1.1,2.2-2.5v-2.1
			c0-0.3-0.2-0.5-0.4-0.5C23.3,18.9,23.1,19.1,23.1,19.4L23.1,19.4z"/>
	</g>
</g>
</svg>
