<?xml version="1.0" encoding="UTF-8"?>
<svg width="16px" height="16px" viewBox="0 0 16 16" version="1.1" xmlns="http://www.w3.org/2000/svg" xmlns:xlink="http://www.w3.org/1999/xlink">
    <!-- Generator: Sketch 52.5 (67469) - http://www.bohemiancoding.com/sketch -->
    <title>01_detail_icon_global</title>
    <desc>Created with Sketch.</desc>
    <g id="symbols" stroke="none" stroke-width="1" fill="none" fill-rule="evenodd">
        <g id="Detail_list-/-1_green" transform="translate(-51.000000, -1090.000000)" fill="#000000">
            <path d="M62.0897314,1100.58878 C62.2605181,1099.92816 62.3675319,1099.2527 62.4092656,1098.57165 L65.8333399,1098.57165 C65.7457861,1099.62121 65.4156677,1100.63618 64.8690096,1101.5365 C63.9927689,1101.08912 63.0568082,1100.76991 62.0897314,1100.58878 Z M63.7211648,1102.96602 C63.6851586,1103.00032 63.6474107,1103.03291 63.6108685,1103.06606 C63.4698581,1103.19487 63.3238571,1103.31738 63.1729659,1103.4336 C63.1335433,1103.46388 63.0935178,1103.49362 63.0534923,1103.52276 C62.8980124,1103.63706 62.7379438,1103.74474 62.57332,1103.84572 L62.4590045,1103.91488 C62.2859736,1104.01582 62.1083876,1104.1094 61.9262799,1104.19554 C61.8930872,1104.21094 61.8604974,1104.22812 61.8273381,1104.24356 C61.6375602,1104.3293 61.443763,1104.40533 61.2471188,1104.47218 C61.217443,1104.48306 61.1899443,1104.49509 61.1574215,1104.50537 C60.9590691,1104.57168 60.7572333,1104.62654 60.5514452,1104.67684 C60.5194583,1104.68425 60.4885767,1104.69456 60.4559868,1104.70143 C60.3776775,1104.71858 60.2964877,1104.72658 60.2170395,1104.74088 C60.8483374,1103.78717 61.3648843,1102.76226 61.7558616,1101.68745 C62.5998809,1101.83829 63.4198849,1102.10167 64.1938678,1102.47051 C64.1773217,1102.48991 64.1590339,1102.50819 64.1418849,1102.52815 C64.0075398,1102.68021 63.8675343,1102.82713 63.7211648,1102.96602 Z M57.4097267,1101.51419 C58.4683765,1101.40025 59.5362038,1101.40025 60.5948871,1101.51419 C60.1862584,1102.56617 59.6518591,1103.56405 59.0028763,1104.48648 C58.3523528,1103.56455 57.8173171,1102.56633 57.4097267,1101.51419 Z M57.4537715,1104.67624 C57.2491222,1104.62821 57.0461811,1104.57336 56.8478287,1104.50476 C56.8175165,1104.49445 56.7878072,1104.48246 56.7580644,1104.47161 C56.5614202,1104.40302 56.3676565,1104.32696 56.1778451,1104.24296 C56.1446859,1104.22752 56.112096,1104.21037 56.0789368,1104.19493 C55.897164,1104.10842 55.719578,1104.01488 55.5461788,1103.91427 L55.4318632,1103.84511 C55.2672394,1103.7445 55.1071708,1103.63686 54.951691,1103.52215 C54.9116654,1103.49301 54.8716734,1103.46498 54.8322173,1103.433 C54.6797854,1103.31869 54.5338178,1103.19618 54.3943482,1103.06543 C54.3577726,1103.0323 54.3200246,1102.99968 54.2840184,1102.96542 C54.1376824,1102.82653 53.9982128,1102.67964 53.8632983,1102.52758 C53.8461493,1102.50759 53.8278615,1102.4893 53.8107125,1102.47041 C54.584729,1102.10157 55.4046994,1101.83819 56.2487187,1101.68734 C56.6397295,1102.76216 57.1562429,1103.78707 57.7875408,1104.74078 C57.7081262,1104.72655 57.6269698,1104.71854 57.5486605,1104.70139 C57.5166401,1104.69393 57.4857919,1104.68368 57.4537715,1104.67624 Z M52.1724462,1098.57165 L55.5965205,1098.57165 C55.6384552,1099.25273 55.7456365,1099.92819 55.9166241,1100.58878 C54.9494134,1100.76984 54.0132182,1101.08905 53.1367765,1101.5365 C52.5900849,1100.63621 52.2599665,1099.62124 52.1724462,1098.57165 Z M55.9160547,1095.41134 C55.745268,1096.07196 55.6382542,1096.74742 55.5965205,1097.42848 L52.1724462,1097.42848 C52.26,1096.37885 52.5901184,1095.36392 53.1367765,1094.46363 C54.0130172,1094.91101 54.9490114,1095.23018 55.9160547,1095.41134 Z M54.2846213,1093.03407 C54.3206275,1092.99977 54.3583754,1092.96719 54.3949511,1092.93403 C54.5359615,1092.80562 54.681929,1092.68311 54.8328202,1092.56649 C54.8722763,1092.53618 54.9122683,1092.50932 54.9522939,1092.47734 C55.1077737,1092.36303 55.2678423,1092.25535 55.4324661,1092.15438 L55.5467817,1092.08522 C55.7201809,1091.98387 55.8977669,1091.89029 56.0795397,1091.80456 C56.1126989,1091.78912 56.1452888,1091.77197 56.178448,1091.75653 C56.3682259,1091.67079 56.5620231,1091.59476 56.7586673,1091.52788 C56.7883766,1091.51703 56.8158418,1091.50501 56.8483981,1091.49472 C57.0467505,1091.42841 57.2485528,1091.37355 57.4543409,1091.32325 C57.4863613,1091.31581 57.5172095,1091.30553 57.5497993,1091.29866 C57.6281086,1091.28152 57.7092984,1091.27351 57.7887466,1091.25921 C57.1571808,1092.21309 56.6404999,1093.2382 56.2493216,1094.31322 C55.4053023,1094.16237 54.5852984,1093.89899 53.8113154,1093.53015 C53.8284644,1093.51019 53.8467522,1093.4919 53.8639012,1093.47191 C53.9982463,1093.31985 54.1382853,1093.17296 54.2846213,1093.03407 Z M60.5960259,1094.48593 C60.0668517,1094.54213 59.535065,1094.57037 59.0028763,1094.57053 C58.4712905,1094.5699 57.9400732,1094.5415 57.4114349,1094.48536 C57.8195277,1093.43393 58.353927,1092.43604 59.0028763,1091.51365 C59.6533998,1092.43557 60.1884355,1093.43379 60.5960259,1094.48593 Z M61.2688566,1098.57165 C61.2237734,1099.19007 61.1184678,1099.80267 60.9544469,1100.40073 C60.3067704,1100.3238 59.655108,1100.28562 59.0028763,1100.28642 C58.3500752,1100.28565 57.6978434,1100.32383 57.0495975,1100.40073 C56.8860455,1099.80263 56.7813428,1099.19004 56.7368961,1098.57165 L61.2688566,1098.57165 Z M56.7369296,1097.42844 C56.7820127,1096.80999 56.8873183,1096.19739 57.0513392,1095.59936 C57.6990157,1095.67629 58.3506781,1095.71444 59.0029098,1095.71367 C59.6557779,1095.71347 60.3080097,1095.67435 60.9561886,1095.59648 C61.119908,1096.19548 61.2246443,1096.80905 61.2688566,1097.42844 L56.7369296,1097.42844 Z M60.5520146,1091.32385 C60.7566639,1091.37188 60.959605,1091.42674 61.1579574,1091.49533 C61.1882696,1091.50561 61.2179789,1091.51763 61.2477217,1091.52848 C61.4443659,1091.59708 61.6381296,1091.6731 61.827941,1091.75713 C61.8611003,1091.77257 61.8936901,1091.78972 61.9268493,1091.80516 C62.1086221,1091.89167 62.2862081,1091.98521 62.4596074,1092.08582 L62.5739564,1092.15498 C62.7385802,1092.25559 62.8986153,1092.36323 63.0540952,1092.47794 C63.0941207,1092.50708 63.1341127,1092.53511 63.1735688,1092.56709 C63.3260342,1092.6814 63.4719683,1092.80391 63.6114379,1092.93463 C63.6480136,1092.96779 63.6857615,1093.00038 63.7217677,1093.03467 C63.8681037,1093.17356 64.0075733,1093.32046 64.1425213,1093.47251 C64.1596368,1093.4925 64.1779246,1093.51079 64.1950736,1093.52968 C63.4210906,1093.89852 62.6010867,1094.1619 61.7570674,1094.31275 C61.3660566,1093.23793 60.8495432,1092.21302 60.2182453,1091.25931 C60.29766,1091.27358 60.3788163,1091.28158 60.4571256,1091.2987 C60.4891461,1091.30613 60.5199942,1091.31642 60.5520146,1091.32385 Z M65.8333399,1097.42848 L62.4092656,1097.42848 C62.3673644,1096.74739 62.2601496,1096.07193 62.089162,1095.41134 C63.0563728,1095.23022 63.992568,1094.91104 64.8690096,1094.46363 C65.4157012,1095.36392 65.7458196,1096.37885 65.8333399,1097.42848 Z M65.5195331,1093.36671 C65.4995371,1093.33814 65.4749524,1093.31356 65.454387,1093.28556 C65.305003,1093.08206 65.1468101,1092.8862 64.9799422,1092.69795 C64.9341892,1092.6465 64.8884362,1092.59563 64.8415779,1092.54532 C64.6697193,1092.36129 64.4894538,1092.18579 64.3008147,1092.0189 C64.2659473,1091.98802 64.2333575,1091.95604 64.19849,1091.92573 C63.7336246,1091.52748 63.2245469,1091.18379 62.6814057,1090.90145 C62.6596345,1090.89003 62.6367914,1090.88032 62.6144843,1090.86887 C62.3725895,1090.74595 62.1245653,1090.63546 61.8713495,1090.5379 C61.8141749,1090.51734 61.7621585,1090.49788 61.7078645,1090.48073 C61.4826498,1090.39958 61.2539852,1090.32851 61.0219376,1090.26752 C60.9533081,1090.24924 60.8847121,1090.23038 60.8149772,1090.21437 C60.5863126,1090.16122 60.357715,1090.12063 60.1238588,1090.08747 C60.0529851,1090.07719 59.9832503,1090.06346 59.9117738,1090.05488 C59.3096158,1089.98171 58.700759,1089.98171 58.0985341,1090.05488 C58.027091,1090.06346 57.9573562,1090.07719 57.886449,1090.08747 C57.6526598,1090.12063 57.4217176,1090.16122 57.1953306,1090.21437 C57.1255958,1090.23038 57.0569997,1090.24924 56.9884037,1090.26752 C56.7547819,1090.32848 56.5261508,1090.39955 56.3024433,1090.48073 C56.2452688,1090.50016 56.1932524,1090.51961 56.1389584,1090.5379 C55.885776,1090.63546 55.6377183,1090.74592 55.3958235,1090.86887 C55.3735164,1090.88029 55.3506734,1090.89 55.3289357,1090.90145 C54.7839522,1091.18349 54.2731998,1091.52714 53.8066597,1091.92573 C53.7717923,1091.95601 53.7392025,1091.98802 53.704335,1092.0189 C53.5137868,1092.18656 53.3335212,1092.36206 53.1635719,1092.54532 C53.1167135,1092.59563 53.0709605,1092.6465 53.025241,1092.69795 C52.8579377,1092.8858 52.6997783,1093.08166 52.5507962,1093.28552 C52.5302308,1093.31352 52.5056461,1093.33811 52.4856166,1093.36667 C52.4830041,1093.37166 52.480693,1093.37682 52.4787503,1093.38211 C50.5070832,1096.14508 50.5070832,1099.85495 52.4787503,1102.61788 C52.480693,1102.62314 52.4829706,1102.62833 52.4856166,1102.63332 C52.5056126,1102.66189 52.5301973,1102.68647 52.5507962,1102.71447 C52.6998118,1102.91796 52.8579377,1103.11382 53.025241,1103.30208 C53.0709605,1103.35352 53.1167135,1103.40436 53.1635719,1103.45467 C53.3358323,1103.63874 53.5160644,1103.81423 53.704335,1103.98112 C53.7392025,1104.012 53.7717923,1104.04399 53.8066597,1104.07426 C54.2715586,1104.47255 54.7806028,1104.81624 55.3237776,1105.09854 C55.3455153,1105.10999 55.3683583,1105.1197 55.3906654,1105.13116 C55.6325602,1105.25407 55.8805844,1105.36456 56.1338003,1105.46212 C56.1909748,1105.48269 56.2429912,1105.50215 56.2972852,1105.51929 C56.5225,1105.60044 56.7511646,1105.67151 56.9832456,1105.7325 C57.0518416,1105.75079 57.1204377,1105.76964 57.1901725,1105.78565 C57.4188371,1105.8388 57.6474682,1105.8794 57.8812909,1105.91255 C57.9521646,1105.92284 58.0218994,1105.93657 58.093376,1105.94514 C58.6955674,1106.01829 59.3043907,1106.01829 59.9066157,1105.94514 C59.9780922,1105.93657 60.0477935,1105.92284 60.1187007,1105.91255 C60.3524899,1105.8794 60.5834321,1105.8388 60.8098526,1105.78565 C60.8795875,1105.76964 60.94815,1105.75079 61.016746,1105.7325 C61.2507362,1105.67155 61.4794008,1105.60048 61.7027064,1105.51929 C61.7598809,1105.49987 61.8119308,1105.48041 61.8662249,1105.46212 C62.1193737,1105.36456 62.3674314,1105.25411 62.6093262,1105.13116 C62.6316333,1105.11974 62.6544764,1105.11003 62.6762141,1105.09854 C63.2193888,1104.8162 63.728433,1104.47255 64.1933319,1104.07426 C64.2281994,1104.04399 64.2607892,1104.012 64.2956566,1103.98112 C64.4862049,1103.81383 64.6664704,1103.63837 64.8364198,1103.45467 C64.8832781,1103.40436 64.9290311,1103.35352 64.9747506,1103.30208 C65.142054,1103.11382 65.3002134,1102.91796 65.4491954,1102.71447 C65.4697943,1102.68647 65.4943455,1102.66189 65.5144085,1102.63332 C65.5169876,1102.62833 65.5192987,1102.62314 65.5212748,1102.61788 C67.4929084,1099.85498 67.4929084,1096.14511 65.5212748,1093.38215 C65.5209734,1093.37699 65.520404,1093.37183 65.5195331,1093.36671 Z" id="01_detail_icon_global"></path>
        </g>
    </g>
</svg>