<?xml version="1.0" encoding="UTF-8"?>
<svg width="16px" height="16px" viewBox="0 0 16 16" version="1.1" xmlns="http://www.w3.org/2000/svg" xmlns:xlink="http://www.w3.org/1999/xlink">
    <!-- Generator: Sketch 52.5 (67469) - http://www.bohemiancoding.com/sketch -->
    <title>01_detail_icon_domestic</title>
    <desc>Created with Sketch.</desc>
    <g id="symbols" stroke="none" stroke-width="1" fill="none" fill-rule="evenodd">
        <g id="Detail_list-/-1_green" transform="translate(-207.000000, -1090.000000)" fill="#000000">
            <path d="M210.309237,1097.3383 C211.73691,1096.47145 213.572547,1096.92013 214.439366,1098.34777 C215.687625,1100.40366 218.349275,1101.0542 220.405133,1099.80594 C220.919105,1099.4939 221.30662,1099.10225 221.659435,1098.65358 C221.300576,1102.31051 218.014905,1105.00896 214.357942,1104.65007 C212.271457,1104.43188 210.374658,1103.23877 209.299738,1101.46843 C208.432888,1100.04079 208.881564,1098.20515 210.309237,1097.3383 M219.171311,1104.85388 C222.826176,1102.63476 224.062002,1097.97638 222.014224,1094.21751 C221.944857,1094.1033 221.875522,1093.98909 221.806155,1093.87488 C219.517707,1090.1058 214.618624,1088.85976 210.849578,1091.14821 C207.080501,1093.43669 205.869134,1098.39287 208.157581,1102.16191 C210.44606,1105.93099 215.402266,1107.14236 219.171311,1104.85388" id="01_detail_icon_domestic"></path>
        </g>
    </g>
</svg>