<?xml version="1.0" encoding="utf-8"?>
<!-- Generator: Adobe Illustrator 22.1.0, SVG Export Plug-In . SVG Version: 6.00 Build 0)  -->
<svg version="1.1" id="Capa_1" xmlns="http://www.w3.org/2000/svg" xmlns:xlink="http://www.w3.org/1999/xlink" x="0px" y="0px"
	 viewBox="0 0 433 433" style="enable-background:new 0 0 433 433;" xml:space="preserve">
<path d="M369.6,63.4C328.7,22.5,274.3,0,216.5,0S104.3,22.5,63.4,63.4C22.5,104.3,0,158.7,0,216.5c0,57.8,22.5,112.2,63.4,153.1
	c40.9,40.9,95.3,63.4,153.1,63.4c57.8,0,112.2-22.5,153.1-63.4c40.9-40.9,63.4-95.3,63.4-153.1S410.5,104.3,369.6,63.4z
	 M216.5,416.5c-110.5,0-200-89.5-200-200c0,0,0,0,0,0c0-0.9,0.3-7.5,0.3-7.7c4-51.6,47.1-90.2,99.7-90.2c55.2,0,100,42.8,100,98
	c0,55.2,44.8,100,100,100c54.4,0,98.6-43.4,100-97.4C415.1,328.4,326.1,416.5,216.5,416.5z"/>
</svg>
