<?xml version="1.0" encoding="utf-8"?>
<!-- Generator: Adobe Illustrator 22.1.0, SVG Export Plug-In . SVG Version: 6.00 Build 0)  -->
<svg version="1.1" id="Capa_1" xmlns="http://www.w3.org/2000/svg" xmlns:xlink="http://www.w3.org/1999/xlink" x="0px" y="0px"
	 viewBox="0 0 490.8 490.8" style="enable-background:new 0 0 490.8 490.8;" xml:space="preserve">
<style type="text/css">
	.st0{fill:#F44336;}
	.st1{fill:#FFFFFF;}
</style>
<path class="st0" d="M362.7,490.8c-2.8,0-5.5-1.1-7.6-3.1L120.5,253c-4.2-4.2-4.2-10.9,0-15.1L355.1,3.3C359.2-1,366-1.1,370.2,3
	c4.2,4.1,4.4,10.8,0.3,15.1c-0.1,0.1-0.2,0.2-0.3,0.3L143.1,245.5l227.1,227.1c4.2,4.2,4.2,10.9,0,15.1
	C368.2,489.7,365.5,490.8,362.7,490.8z"/>
<path class="st1" d="M362.7,490.8c-2.8,0-5.5-1.1-7.6-3.1L120.5,253c-4.2-4.2-4.2-10.9,0-15.1L355.1,3.3C359.2-1,366-1.1,370.2,3
	c4.2,4.1,4.4,10.8,0.3,15.1c-0.1,0.1-0.2,0.2-0.3,0.3L143.1,245.5l227.1,227.1c4.2,4.2,4.2,10.9,0,15.1
	C368.2,489.7,365.5,490.8,362.7,490.8z"/>
</svg>
